<?xml version="1.0" standalone="no"?>
<!DOCTYPE svg PUBLIC "-//W3C//DTD SVG 20010904//EN"
 "http://www.w3.org/TR/2001/REC-SVG-20010904/DTD/svg10.dtd">
<svg version="1.0" xmlns="http://www.w3.org/2000/svg"
 width="348.000000pt" height="348.000000pt" viewBox="0 0 348.000000 348.000000"
 preserveAspectRatio="xMidYMid meet">
<metadata>
Created by potrace 1.14, written by Peter Selinger 2001-2017
</metadata>
<g transform="translate(0.000000,348.000000) scale(0.100000,-0.100000)"
fill="#000000" stroke="none">
<path d="M1550 3225 c-665 -82 -1206 -634 -1279 -1305 -12 -112 -6 -302 13
-420 73 -445 383 -861 794 -1065 240 -118 399 -155 670 -155 234 0 411 38 610
131 374 173 659 490 792 879 95 277 95 665 -1 935 -145 412 -437 727 -829 895
-236 101 -504 138 -770 105z m229 -532 c28 -9 69 -33 92 -54 38 -35 45 -37
102 -37 71 0 121 -19 172 -63 44 -39 63 -73 75 -140 25 -133 -56 -252 -193
-284 -28 -7 -51 -17 -50 -22 1 -5 3 -68 4 -139 l2 -129 -154 -103 c-85 -57
-159 -106 -166 -108 -6 -3 -73 34 -149 82 l-137 88 6 70 c4 39 9 114 13 167
l7 96 -51 6 c-90 11 -161 62 -198 142 -56 119 -11 255 105 318 39 22 62 27
116 27 36 0 76 -5 87 -11 17 -9 26 -5 62 29 82 79 155 98 255 65z m990 -197
c9 -11 -35 -49 -219 -192 -211 -164 -248 -200 -215 -210 6 -2 114 71 240 161
211 152 260 179 260 149 0 -7 -105 -92 -233 -189 -218 -167 -231 -179 -216
-196 15 -16 29 -7 250 157 129 96 239 172 244 169 6 -4 10 -12 9 -18 0 -7
-101 -93 -225 -191 -123 -99 -224 -184 -224 -188 0 -19 32 -19 53 -1 12 11
115 90 229 176 179 135 208 154 219 141 8 -10 10 -20 3 -29 -15 -22 -515 -445
-525 -445 -19 0 -70 31 -109 66 l-39 36 -45 -37 c-32 -26 -45 -44 -43 -58 2
-18 -3 -22 -24 -22 -19 0 -75 -40 -202 -145 -97 -80 -176 -148 -176 -151 -1
-3 20 -20 47 -36 230 -145 660 -428 670 -441 18 -23 15 -83 -8 -119 -17 -28
-65 -53 -104 -53 -4 0 -47 31 -95 68 -47 38 -198 158 -336 267 -137 109 -257
204 -266 212 -14 12 -37 -4 -190 -133 -397 -334 -375 -317 -422 -311 -61 8
-97 51 -97 115 l0 48 286 193 c235 159 284 196 272 206 -7 7 -70 58 -141 114
-110 87 -131 100 -154 95 -23 -6 -25 -4 -21 14 5 17 -5 31 -44 64 -50 41 -50
41 -76 24 -73 -47 -113 -59 -192 -54 -96 6 -159 38 -238 123 -96 102 -153 234
-146 338 4 84 68 126 190 127 297 1 538 -220 458 -420 -9 -23 -15 -42 -13 -44
54 -42 104 -67 125 -62 19 5 24 3 24 -14 0 -15 37 -44 143 -113 78 -51 157
-102 174 -112 l32 -19 215 145 c177 118 215 148 216 168 0 20 4 22 25 17 20
-5 37 1 70 25 25 18 45 34 45 36 0 2 -7 14 -14 26 -8 12 -22 49 -31 82 -12 47
-13 62 -3 72 16 15 561 382 569 382 4 1 12 -5 18 -13z"/>
<path d="M1656 2659 c-50 -12 -101 -50 -122 -92 -9 -18 -18 -33 -19 -35 -2 -2
-21 6 -44 17 -165 85 -349 -87 -272 -254 39 -84 133 -134 217 -115 21 5 39 8
40 7 1 -1 -4 -69 -12 -152 -19 -222 -21 -210 26 -241 22 -15 42 -25 44 -23 2
2 6 108 8 236 l5 232 -47 -6 c-57 -7 -102 14 -130 60 -57 92 14 214 118 205
37 -3 37 -4 43 -55 7 -55 39 -117 69 -133 31 -16 33 -12 9 21 -45 64 -29 170
33 214 82 57 196 29 245 -60 11 -19 13 -19 47 -2 104 49 228 -19 243 -132 7
-49 23 -55 23 -8 0 79 -47 159 -112 193 -33 17 -109 23 -149 12 -23 -7 -30 -3
-53 32 -43 65 -130 97 -210 79z"/>
<path d="M560 2195 c0 -27 40 -137 72 -198 18 -32 57 -82 90 -112 132 -122
322 -122 393 0 29 49 50 134 36 148 -5 5 -12 -3 -16 -23 -8 -36 -83 -120 -108
-120 -8 0 -112 69 -229 153 -257 184 -238 172 -238 152z"/>
<path d="M2288 2157 c-43 -29 -77 -59 -78 -68 0 -9 16 -48 35 -87 35 -70 88
-127 143 -156 27 -14 31 -14 46 3 16 17 12 25 -76 141 l-93 122 22 18 c109 88
109 100 1 27z"/>
<path d="M1757 1572 c-31 -21 -54 -41 -51 -45 7 -6 86 46 106 70 16 20 8 16
-55 -25z"/>
<path d="M1584 1512 c15 -25 738 -582 755 -582 10 0 24 6 30 14 14 16 22 9
-204 168 -82 57 -235 165 -340 238 -104 73 -203 142 -219 153 -16 12 -26 16
-22 9z"/>
<path d="M1341 1285 c-129 -89 -238 -170 -242 -178 -11 -18 -1 -47 15 -47 15
0 486 368 486 381 0 21 -36 0 -259 -156z"/>
</g>
</svg>
